<svg width="93" height="20" fill="none" xmlns="http://www.w3.org/2000/svg"><path d="M4.847 14.161a3.616 3.616 0 0 1-1.56-.337c-.463-.21-.835-.576-1.116-1.096-.281-.52-.422-1.23-.422-2.128V6.153H0V4.678h1.75v-1.98l1.811-.464v2.444h2.613v1.475H3.561v3.604c0 .899.092 1.623.274 2.17.197.534.59.801 1.18.801.422 0 .907-.133 1.454-.4l.359 1.349c-.31.126-.632.238-.97.337a3.599 3.599 0 0 1-1.011.147Zm2.55-.337v-1.475h1.77V2.17l-2.002-.696L7.65 0l3.372 1.159v4.046c.913-.576 1.861-.864 2.845-.864 1.25 0 2.177.302 2.781.906.604.59.906 1.503.906 2.74v4.362h1.77v1.475h-4.551v-1.475h.927V8.324c0-.857-.169-1.475-.506-1.855-.337-.393-.878-.59-1.622-.59-.422 0-.871.064-1.35.19a4.054 4.054 0 0 0-1.2.485v5.795h.927v1.475H7.397Zm21.339-1.096a6.22 6.22 0 0 1-1.791 1.096 5.7 5.7 0 0 1-2.002.337c-.998 0-1.876-.197-2.634-.59a4.3 4.3 0 0 1-1.728-1.707c-.408-.73-.611-1.601-.611-2.613 0-.983.19-1.84.569-2.57a4.24 4.24 0 0 1 1.643-1.729c.717-.407 1.539-.61 2.466-.61.885 0 1.644.189 2.276.568a3.765 3.765 0 0 1 1.475 1.56c.351.66.527 1.446.527 2.36a4.9 4.9 0 0 1-.021.442l-.043.464-7.08.042c.042.66.21 1.208.506 1.644.295.421.674.73 1.138.927.463.197.955.295 1.475.295.604 0 1.159-.084 1.665-.253a4.86 4.86 0 0 0 1.39-.78l.78 1.117Zm-1.644-4.362c-.014-.773-.238-1.39-.674-1.854-.435-.478-1.018-.717-1.75-.717a2.8 2.8 0 0 0-1.896.717c-.547.463-.87 1.081-.969 1.854h5.29ZM30.853.354h6.532v1.669h-2.25l-.048 10.912h2.298v1.67H30.83v-1.67h2.346V2.023h-2.322V.353Zm7.711 14.25v-1.5h2.033V6.16l-2.323-.798.508-1.5 3.194 1.113a5.41 5.41 0 0 1 1.548-.799 5.176 5.176 0 0 1 1.718-.314c.807 0 1.5.105 2.08.314.598.21 1.066.525 1.404.944.404-.371.928-.67 1.573-.895.645-.242 1.266-.363 1.863-.363 1.468 0 2.524.322 3.17.968.66.645.992 1.685.992 3.12v5.154h2.032v1.5h-5.009v-1.5h1.09V8.338c0-1.065-.186-1.815-.557-2.25-.355-.452-.968-.678-1.839-.678-.516 0-1.024.081-1.524.242-.484.145-.855.339-1.113.581v6.871h1.088v1.5h-4.064v-1.5h1.089V8.338c0-1.065-.186-1.815-.557-2.25-.355-.452-.968-.678-1.839-.678-.516 0-1.024.081-1.524.242-.484.145-.855.339-1.113.581v6.871h1.089v1.5h-5.009Zm28.062-.701c-1.048.71-2.186 1.064-3.411 1.064-1.355 0-2.388-.274-3.097-.822-.694-.549-1.049-1.347-1.065-2.396-.032-2.113 1.307-3.17 4.016-3.17l3.122.025c0-1.08-.202-1.88-.605-2.395-.403-.533-1.016-.799-1.84-.799-.386 0-.765.025-1.136.073a6.581 6.581 0 0 0-1.04.218l-.243 1.33-1.548-.29.387-2.202a11.7 11.7 0 0 1 1.79-.508 9.243 9.243 0 0 1 1.718-.17c1.452 0 2.549.396 3.29 1.186.743.775 1.114 1.928 1.114 3.46v4.21l2.298.75-.484 1.549-3.266-1.113Zm-3.484-3.799c-.694 0-1.226.137-1.597.412-.37.274-.556.677-.556 1.21 0 1.128.774 1.693 2.322 1.693 1.113 0 2.073-.306 2.88-.92v-2.37l-3.049-.025Zm12.567 1.646c-1.468 0-2.63-.34-3.484-1.017-.84-.693-1.258-1.645-1.258-2.855 0-1.242.427-2.218 1.282-2.927.855-.726 2.016-1.09 3.484-1.09a6.95 6.95 0 0 1 1.621.17 5.06 5.06 0 0 1 1.33.508l3.436-1.282.557 1.597-2.855.653c.242.307.42.645.532 1.016.13.371.194.783.194 1.234 0 .807-.202 1.517-.605 2.13-.387.596-.944 1.056-1.67 1.379-.725.322-1.58.483-2.564.483Zm.193 8.25c-.516 0-1.12-.056-1.814-.17a14.848 14.848 0 0 1-1.984-.46c-.613-.177-1.073-.354-1.38-.531l.678-1.428c.58.307 1.299.548 2.153.726.855.177 1.638.266 2.347.266.694 0 1.283-.056 1.766-.17.484-.096.855-.257 1.113-.483a.988.988 0 0 0 .412-.823c0-.516-.218-.895-.653-1.137-.436-.226-1.057-.339-1.864-.339h-3.46v-4.766l1.84.605v2.661h2.129c1.29 0 2.258.234 2.903.702.645.468.968 1.17.968 2.105 0 .677-.21 1.258-.63 1.742-.403.484-.991.855-1.766 1.113-.758.258-1.677.387-2.758.387Zm-.145-9.799c.887 0 1.589-.226 2.105-.677a2.183 2.183 0 0 0 .774-1.718c0-.758-.242-1.347-.725-1.767-.484-.419-1.202-.629-2.154-.629s-1.67.21-2.153.63c-.484.419-.726 1.008-.726 1.766 0 .693.258 1.266.774 1.718.516.451 1.218.677 2.105.677Zm16.479 3.169c-.645.549-1.306.952-1.984 1.21-.661.258-1.42.387-2.274.387-1.13 0-2.113-.217-2.952-.653a4.86 4.86 0 0 1-1.96-1.911c-.451-.839-.677-1.84-.677-3 0-1.113.218-2.081.653-2.904a4.633 4.633 0 0 1 1.839-1.935c.806-.468 1.734-.702 2.782-.702.984 0 1.823.21 2.517.629a4.139 4.139 0 0 1 1.597 1.766c.387.742.58 1.63.58 2.662 0 .145-.008.298-.024.46 0 .145-.008.298-.024.46l-8.057.047c.048.823.242 1.493.58 2.009.355.516.799.895 1.331 1.137.549.242 1.13.363 1.742.363.71 0 1.347-.097 1.912-.29a4.909 4.909 0 0 0 1.548-.872l.871 1.137Zm-1.742-5.008c-.016-.903-.282-1.629-.798-2.177-.5-.565-1.17-.847-2.008-.847a3.31 3.31 0 0 0-2.25.847c-.646.548-1.033 1.282-1.162 2.201l6.218-.024Z" fill="#fff"/></svg>