<svg width="120" height="26" fill="none" xmlns="http://www.w3.org/2000/svg"><path d="M6.298 18.4c-.73 0-1.406-.146-2.027-.438-.602-.274-1.086-.749-1.45-1.424-.366-.676-.548-1.597-.548-2.766V7.995H0V6.078h2.273V3.505l2.354-.603v3.176h3.395v1.917H4.627v4.682c0 1.168.119 2.108.356 2.82.256.694.767 1.04 1.534 1.04.547 0 1.177-.173 1.889-.52l.465 1.753c-.401.164-.821.31-1.26.438a4.673 4.673 0 0 1-1.313.192Zm3.313-.438v-1.917h2.3V2.82L9.31 1.917 9.94 0l4.38 1.506v5.257c1.187-.748 2.42-1.123 3.697-1.123 1.625 0 2.83.393 3.614 1.178.785.766 1.177 1.953 1.177 3.56v5.667h2.3v1.917h-5.914v-1.917H20.4v-5.23c0-1.113-.219-1.916-.657-2.41-.438-.51-1.14-.766-2.108-.766-.548 0-1.132.082-1.753.247a5.269 5.269 0 0 0-1.56.63v7.529h1.204v1.917H9.611Zm27.726-1.424c-.749.639-1.524 1.113-2.328 1.424-.784.292-1.651.438-2.6.438-1.297 0-2.438-.256-3.423-.767a5.588 5.588 0 0 1-2.245-2.218c-.53-.949-.794-2.08-.794-3.395 0-1.278.246-2.391.739-3.34a5.509 5.509 0 0 1 2.136-2.246c.93-.529 1.998-.794 3.203-.794 1.15 0 2.136.247 2.957.74A4.893 4.893 0 0 1 36.9 8.406c.456.858.684 1.88.684 3.066 0 .183-.009.375-.027.575l-.055.603-9.2.054c.055.858.274 1.57.657 2.136.384.548.877.95 1.479 1.205a4.855 4.855 0 0 0 1.917.383c.785 0 1.505-.11 2.163-.328a6.298 6.298 0 0 0 1.807-1.013l1.013 1.45ZM35.2 10.87c-.018-1.004-.31-1.807-.876-2.41-.566-.62-1.323-.93-2.273-.93-.93 0-1.752.31-2.464.93-.712.603-1.132 1.406-1.26 2.41H35.2ZM40.087.46h8.488v2.169H45.65l-.063 14.178h2.987v2.169h-8.52v-2.17h3.05V2.63h-3.018V.459Zm10.02 18.516v-1.95h2.64V8.005L49.73 6.967l.66-1.95 4.15 1.447a7.03 7.03 0 0 1 2.011-1.038c.776-.272 1.52-.408 2.232-.408 1.048 0 1.95.136 2.704.408.775.273 1.383.682 1.823 1.226.524-.482 1.205-.87 2.043-1.163.839-.314 1.646-.471 2.421-.471 1.907 0 3.28.419 4.118 1.257.86.838 1.29 2.19 1.29 4.056v6.696h2.64v1.949h-6.507v-1.95h1.414v-6.192c0-1.384-.24-2.358-.723-2.924-.46-.587-1.257-.88-2.389-.88-.67 0-1.33.104-1.98.314-.63.189-1.111.44-1.447.755v8.928h1.415v1.949h-5.281v-1.95h1.414v-6.192c0-1.384-.24-2.358-.723-2.924-.46-.587-1.257-.88-2.389-.88-.67 0-1.33.104-1.98.314-.63.189-1.111.44-1.447.755v8.928h1.415v1.949h-6.507Zm36.46-.912c-1.362.922-2.84 1.383-4.432 1.383-1.76 0-3.102-.356-4.024-1.069-.901-.712-1.362-1.75-1.383-3.112-.042-2.745 1.697-4.118 5.218-4.118l4.056.031c0-1.404-.262-2.441-.786-3.112-.524-.692-1.32-1.037-2.39-1.037-.502 0-.995.031-1.477.094a8.548 8.548 0 0 0-1.352.283l-.314 1.729-2.012-.377.503-2.861a15.042 15.042 0 0 1 2.326-.66 12.01 12.01 0 0 1 2.232-.22c1.886 0 3.311.513 4.276 1.54.964 1.006 1.446 2.505 1.446 4.496v5.47l2.986.974-.629 2.012-4.244-1.446Zm-4.526-4.936c-.902 0-1.593.178-2.075.535-.482.356-.723.88-.723 1.572 0 1.467 1.006 2.2 3.018 2.2 1.446 0 2.693-.398 3.74-1.194V13.16l-3.96-.032Zm16.328 2.138c-1.908 0-3.417-.44-4.527-1.32-1.09-.901-1.635-2.138-1.635-3.71 0-1.614.555-2.881 1.666-3.804 1.11-.943 2.62-1.414 4.527-1.414.796 0 1.498.073 2.106.22a6.573 6.573 0 0 1 1.729.66l4.464-1.666.723 2.075-3.709.848c.314.399.545.839.691 1.32.168.483.252 1.017.252 1.604 0 1.048-.262 1.97-.786 2.766-.503.776-1.226 1.373-2.169 1.792-.943.42-2.054.63-3.332.63Zm.251 10.72c-.67 0-1.457-.073-2.358-.22a19.3 19.3 0 0 1-2.578-.597c-.796-.23-1.393-.461-1.791-.692l.88-1.855c.754.398 1.687.713 2.798.943 1.11.231 2.127.346 3.049.346.901 0 1.666-.073 2.295-.22.629-.126 1.111-.335 1.446-.629.356-.272.534-.628.534-1.068 0-.671-.282-1.164-.848-1.478-.566-.293-1.373-.44-2.421-.44h-4.495v-6.193l2.389.786v3.458h2.766c1.677 0 2.934.304 3.773.912.838.607 1.257 1.519 1.257 2.734 0 .88-.272 1.635-.817 2.264-.524.629-1.289 1.11-2.295 1.446-.985.335-2.18.503-3.584.503Zm-.189-12.732c1.153 0 2.065-.293 2.735-.88.671-.587 1.006-1.33 1.006-2.232 0-.985-.314-1.75-.943-2.295-.628-.545-1.561-.817-2.798-.817-1.236 0-2.169.272-2.797.817-.63.545-.944 1.31-.944 2.295 0 .901.336 1.645 1.006 2.232.671.587 1.583.88 2.735.88Zm21.412 4.118c-.838.713-1.698 1.237-2.578 1.572-.859.335-1.844.503-2.955.503-1.467 0-2.746-.283-3.835-.849a6.316 6.316 0 0 1-2.547-2.483c-.587-1.09-.88-2.39-.88-3.898 0-1.446.283-2.704.849-3.773.566-1.09 1.362-1.928 2.389-2.515 1.048-.607 2.253-.911 3.615-.911 1.279 0 2.368.272 3.27.817.901.545 1.592 1.31 2.075 2.295.503.964.754 2.117.754 3.458 0 .189-.01.388-.031.597 0 .189-.011.388-.032.598l-10.468.063c.063 1.068.314 1.938.754 2.609.461.67 1.038 1.163 1.729 1.477a5.549 5.549 0 0 0 2.264.472c.922 0 1.75-.126 2.483-.377a6.375 6.375 0 0 0 2.012-1.132l1.132 1.477Zm-2.264-6.507c-.021-1.174-.366-2.117-1.037-2.83-.65-.733-1.519-1.1-2.609-1.1a4.304 4.304 0 0 0-2.924 1.1c-.838.713-1.341 1.667-1.509 2.861l8.079-.031Z" fill="currentColor"/></svg>